{"title":"WWE Wrestlemania XXVIII","uid":7154183,"size":2341634296,"categoryP":"video","categoryS":"tv_shows","magnet":"?xt=urn:btih:2bcb79b9da719d80081704bd648e99f7b73d193d&amp;dn=WWE+Wrestlemania+XXVIII&amp;tr=udp%3A%2F%2Ftracker.openbittorrent.com%3A80&amp;tr=udp%3A%2F%2Fopen.demonii.com%3A1337&amp;tr=udp%3A%2F%2Ftracker.coppersurfer.tk%3A6969&amp;tr=udp%3A%2F%2Fexodus.desync.com%3A6969","seeders":0,"leechers":1,"uploader":"teamsuey","files":1,"time":1333408230,"description":"General\nComplete name        WWE Wrestle mania XXVIII.XviD.avi\nFormat                                   : AVI\nFormat/Info                              : Audio Video Interleave\nFormat profile                           : OpenDML\nFile size                                : 2.18 GiB\nDuration                                 : 4h 28mn\nOverall bit rate                         : 1 164 Kbps\nWriting library                          : VirtualDub build 32842/release\n\nVideo\nID                                       : 0\nFormat                                   : MPEG-4 Visual\nFormat profile                           : Advanced Simple@L5\nFormat settings, BVOP                    : 2\nFormat settings, QPel                    : No\nFormat settings, GMC                     : No warppoints\nFormat settings, Matrix                  : Default (H.263)\nCodec ID                                 : XVID\nCodec ID/Hint                            : XviD\nDuration                                 : 4h 28mn\nBit rate                                 : 1 024 Kbps\nWidth                                    : 640 pixels\nHeight                                   : 368 pixels\nDisplay aspect ratio                     : 16:9\nFrame rate                               : 25.000 fps\nColor space                              : YUV\nChroma subsampling                       : 4:2:0\nBit depth                                : 8 bits\nScan type                                : Progressive\nCompression mode                         : Lossy\nBits/(Pixel*Frame)                       : 0.174\nStream size                              : 1.92 GiB (88%)\nWriting library                          : XviD 1.1.2 (UTC 2006-11-01)\n\nAudio\nID                                       : 1\nFormat                                   : MPEG Audio\nFormat version                           : Version 1\nFormat profile                           : Layer 3\nMode                                     : Joint stereo\nMode extension                           : MS Stereo\nCodec ID                                 : 55\nCodec ID/Hint                            : MP3\nDuration                                 : 4h 28mn\nBit rate mode                            : Constant\nBit rate                                 : 128 Kbps\nChannel(s)                               : 2 channels\nSampling rate                            : 44.1 KHz\nCompression mode                         : Lossy\nStream size                              : 246 MiB (11%)\nAlignment                                : Split accross interleaves\nInterleave, duration                     : 40 ms (1.00 video frame)\nInterleave, preload duration             : 500 ms\n\n","torrent":{"xt":"urn:btih:2bcb79b9da719d80081704bd648e99f7b73d193d","amp;dn":"WWE+Wrestlemania+XXVIII","amp;tr":["udp%3A%2F%2Ftracker.openbittorrent.com%3A80","udp%3A%2F%2Fopen.demonii.com%3A1337","udp%3A%2F%2Ftracker.coppersurfer.tk%3A6969","udp%3A%2F%2Fexodus.desync.com%3A6969"],"infoHash":"2bcb79b9da719d80081704bd648e99f7b73d193d","infoHashBuffer":{"type":"Buffer","data":[43,203,121,185,218,113,157,128,8,23,4,189,100,142,153,247,183,61,25,61]},"announce":[],"urlList":[]}}